# xmcd
#
# Track frame offsets: 
#        150
#        39196
#        48349
#        71344
#        97407
#        149007
#        175975
#        202223
#        227218
#        232349
#
# Disc length: 3284 seconds
#
# Revision: 0
# Processed by: cddbd v1.5.2PL0 Copyright (c) Steve Scherf et al.
# Submitted via: ExactAudioCopyFreeDBPlugin 1.0
#
DISCID=9b0cd20a
DTITLE=RatzFatzBänd - Untere Schublade
DYEAR=2012
DGENRE=Blues
TTITLE0=Sag Nix
TTITLE1=Die Zensurhupe
TTITLE2=Wahre Schönheit
TTITLE3=Erfahrung einer Beziehung
TTITLE4=Der Speckmacher und der Kasfinger
TTITLE5=Verena und Ander
TTITLE6=Der Huber in mir
TTITLE7=Irgendwann derwischt's an jeden
TTITLE8=Die Ballade vom Rheinschiff
TTITLE9=schaug in die Wellen zua
EXTD=
EXTT0=
EXTT1=
EXTT2=
EXTT3=
EXTT4=
EXTT5=
EXTT6=
EXTT7=
EXTT8=
EXTT9=
PLAYORDER=
